<?xml version="1.0" encoding="UTF-8"?>
<svg xmlns="http://www.w3.org/2000/svg" width="282" height="53" viewBox="0 0 282 53" fill="none">
  <g clip-path="url(#clip0_484_90)">
    <path d="M119.16 0H118.287V52.8H119.16V0Z" fill="#002169"></path>
    <path d="M107.534 1.65582V34.4643C107.534 38.6518 106.258 41.9985 103.745 44.4306C101.225 46.8608 97.9596 48.0888 94.0234 48.0888C90.0872 48.0888 86.9835 46.8516 84.5246 44.4176C82.0637 41.98 80.8204 38.6241 80.8204 34.4643V1.65582H76.4182V34.4643C76.4182 39.8724 78.0723 44.1687 81.3435 47.2388C84.6111 50.296 88.877 51.8541 94.0234 51.8541C99.1698 51.8541 103.565 50.3052 106.887 47.2536C110.21 44.1945 111.901 39.8964 111.901 34.4643V1.65582H107.532H107.534Z" fill="#002169"></path>
    <path d="M66.0517 36.6364C65.8638 40.1914 64.6831 42.9683 62.5299 44.8933C60.1593 47.0175 56.8365 48.0888 52.6498 48.0888C48.463 48.0888 45.0076 46.4385 42.4565 43.1803C39.9017 39.9093 38.605 35.6148 38.605 30.4169V22.3554C38.605 17.2238 39.9036 12.957 42.4565 9.67121C45.0131 6.40198 48.4391 4.74616 52.6498 4.74616C56.8604 4.74616 60.1593 5.84881 62.528 8.03014C64.661 9.97914 65.8435 12.6804 66.0517 16.0585L66.0572 16.2281H70.2992L70.2936 16.0456C70.185 11.5151 68.5935 7.87156 65.5672 5.21635C62.3439 2.38228 57.9987 0.951416 52.6516 0.951416C47.3045 0.951416 42.6738 2.97602 39.3068 6.97358C35.9453 10.9527 34.2378 16.1562 34.2378 22.4291V30.4206C34.2378 36.7138 35.9453 41.9117 39.3068 45.878C42.6738 49.8479 47.1663 51.8577 52.6516 51.8577C58.1369 51.8577 62.2591 50.3937 65.5157 47.4951C68.5862 44.7569 70.1942 41.1133 70.2955 36.653L70.2992 36.4704H66.0682L66.0535 36.64L66.0517 36.6364Z" fill="#002169"></path>
    <path d="M4.84981 1.59131H0V51.2106H4.84981V1.59131Z" fill="#002169"></path>
    <path d="M23.026 12.2269C23.3704 16.8053 20.8838 20.3382 19.7179 21.7986C19.8137 21.8521 19.8763 21.9 19.9573 21.9461L20.1323 22.053C20.998 22.5896 23.2489 23.7974 23.2746 23.8121L23.2968 23.825L23.3133 23.8324C23.5159 23.9504 23.6136 24.0002 23.7572 24.0813C23.8364 24.0131 23.9027 23.9541 23.9764 23.8914C25.7557 22.3278 28.736 18.5404 28.6881 13.0567C28.5389 8.10212 25.8239 4.91033 24.3356 3.75605C23.1641 2.84332 21.5948 1.90109 20.2741 1.57288H14.2234C15.7651 2.11314 16.8316 2.7124 17.6144 3.11069C19.5926 4.36085 22.6281 6.96812 23.026 12.2269Z" fill="#00AFAA"></path>
    <path d="M19.2022 27.9314C19.5098 28.1471 25.5974 31.7132 24.6267 39.6475C24.3596 41.8657 21.6501 49.7447 12.9728 51.1811L20.1195 51.2106C20.1195 51.2106 20.5229 51.2106 21.1196 51.1553C21.7109 51.1 30.4656 49.2432 31.009 38.5098C31.009 30.8355 25.0798 26.5503 22.5785 25.1121C21.5562 24.5442 20.2742 23.8804 19.3643 23.3198C17.3989 22.1194 14.0927 20.1354 12.6615 17.6867C12.6615 17.6867 12.5252 20.0082 12.6688 21.0574C12.8899 23.01 15.417 25.2541 16.4614 26.0174C17.5002 26.7771 18.528 27.4631 19.204 27.9314H19.2022Z" fill="#00AFAA"></path>
    <path d="M126.419 24.0352V11.6959H130.018C131.298 11.6959 132.299 11.9651 133.015 12.5053C133.732 13.0456 134.091 13.8569 134.091 14.9411C134.091 15.557 133.918 16.0972 133.57 16.5601C133.221 17.0229 132.755 17.3511 132.168 17.5429C132.947 17.6387 133.582 17.978 134.078 18.5607C134.572 19.1434 134.818 19.8238 134.818 20.6037C134.818 21.7064 134.461 22.5527 133.746 23.1465C133.032 23.7402 132.078 24.0371 130.88 24.0371H126.419V24.0352ZM127.436 17.2294H130.4C131.252 17.2128 131.912 17.0081 132.378 16.6154C132.844 16.2226 133.076 15.6529 133.076 14.9079C133.076 14.163 132.816 13.5416 132.297 13.1489C131.777 12.7561 131.018 12.5588 130.02 12.5588H127.438V17.2294H127.436ZM127.436 18.085V23.1797H130.882C131.79 23.1797 132.505 22.9547 133.024 22.5066C133.544 22.0567 133.803 21.428 133.803 20.6203C133.803 19.8809 133.547 19.2798 133.037 18.8188C132.525 18.3579 131.842 18.1145 130.983 18.085H127.436Z" fill="#002169"></path>
    <path d="M144.529 24.0353C144.467 23.7126 144.421 23.436 144.389 23.2055C144.358 22.9732 144.341 22.7371 144.341 22.4938C144.026 22.9916 143.582 23.4028 143.013 23.7273C142.442 24.0518 141.788 24.2141 141.05 24.2141C140.153 24.2141 139.457 23.9762 138.963 23.4987C138.469 23.0211 138.222 22.3721 138.222 21.5534C138.222 20.7347 138.582 20.0709 139.298 19.562C140.015 19.053 140.947 18.8004 142.092 18.8004H144.345V17.6646C144.345 17.0082 144.137 16.4956 143.722 16.1212C143.308 15.7488 142.722 15.5625 141.965 15.5625C141.271 15.5625 140.711 15.7322 140.285 16.0715C139.86 16.4107 139.646 16.8367 139.646 17.3511H138.707L138.69 17.2995C138.657 16.6099 138.952 16.0032 139.576 15.4814C140.199 14.9596 141.015 14.6978 142.019 14.6978C143.022 14.6978 143.831 14.9559 144.439 15.4685C145.049 15.983 145.354 16.7205 145.354 17.6812V22.1895C145.354 22.5122 145.371 22.8257 145.41 23.1299C145.446 23.4341 145.507 23.7365 145.592 24.0371H144.535L144.529 24.0353ZM141.16 23.3143C141.939 23.3143 142.614 23.1281 143.185 22.7593C143.756 22.3905 144.141 21.9129 144.345 21.3303V19.5767H142.085C141.26 19.5767 140.58 19.774 140.044 20.1649C139.508 20.5577 139.239 21.0315 139.239 21.5847C139.239 22.1047 139.41 22.5233 139.751 22.8386C140.094 23.1539 140.562 23.3124 141.16 23.3124V23.3143Z" fill="#002169"></path>
    <path d="M150.803 14.8655L150.897 16.4586C151.195 15.8999 151.595 15.4648 152.09 15.1568C152.588 14.8489 153.177 14.6959 153.859 14.6959C154.853 14.6959 155.608 15.0001 156.128 15.6067C156.647 16.2134 156.907 17.1612 156.907 18.45V24.0352H155.89V18.4593C155.89 17.4082 155.695 16.6651 155.303 16.23C154.91 15.7948 154.352 15.5772 153.63 15.5772C152.908 15.5772 152.324 15.7543 151.882 16.1101C151.438 16.466 151.12 16.9436 150.921 17.5428V24.0352H149.906V14.8655H150.803Z" fill="#002169"></path>
    <path d="M164.766 23.3585C165.415 23.3585 165.989 23.1667 166.489 22.7814C166.988 22.3978 167.238 21.8631 167.238 21.179H168.144L168.161 21.2306C168.183 22.0788 167.852 22.7869 167.163 23.3585C166.474 23.9301 165.676 24.2141 164.766 24.2141C163.547 24.2141 162.597 23.7844 161.917 22.9252C161.237 22.0659 160.896 20.967 160.896 19.6283V19.2724C160.896 17.9393 161.235 16.844 161.913 15.9847C162.591 15.1255 163.538 14.6959 164.757 14.6959C165.739 14.6959 166.559 14.9927 167.212 15.5865C167.866 16.1802 168.183 16.9602 168.161 17.9245L168.144 17.9762H167.238C167.238 17.2423 166.999 16.6559 166.518 16.2171C166.037 15.7801 165.452 15.5607 164.757 15.5607C163.798 15.5607 163.083 15.9128 162.615 16.619C162.147 17.3253 161.913 18.2103 161.913 19.2706V19.6264C161.913 20.7051 162.147 21.5976 162.615 22.3001C163.083 23.0026 163.799 23.3548 164.766 23.3548V23.3585Z" fill="#002169"></path>
    <path d="M171.624 19.3148C171.624 17.9651 171.994 16.8569 172.733 15.9921C173.471 15.1273 174.451 14.6959 175.671 14.6959C176.89 14.6959 177.877 15.1273 178.618 15.9921C179.356 16.8569 179.727 17.9632 179.727 19.3148V19.5951C179.727 20.9522 179.358 22.0604 178.622 22.9215C177.885 23.7826 176.907 24.2141 175.687 24.2141C174.468 24.2141 173.471 23.7826 172.733 22.9215C171.994 22.0604 171.624 20.9504 171.624 19.5951V19.3148ZM172.641 19.5951C172.641 20.6572 172.908 21.5496 173.444 22.2743C173.98 22.9971 174.728 23.3585 175.687 23.3585C176.647 23.3585 177.371 22.9971 177.909 22.2743C178.448 21.5515 178.717 20.659 178.717 19.5951V19.3148C178.717 18.2693 178.447 17.3824 177.905 16.6541C177.363 15.9257 176.617 15.5607 175.669 15.5607C174.72 15.5607 173.978 15.9257 173.442 16.6541C172.906 17.3824 172.639 18.2712 172.639 19.3148V19.5951H172.641Z" fill="#002169"></path>
    <path d="M189.371 19.5269C189.371 18.0628 189.681 16.8919 190.298 16.0142C190.915 15.1365 191.779 14.6959 192.884 14.6959C193.51 14.6959 194.059 14.8286 194.53 15.0941C195.002 15.3597 195.392 15.7358 195.702 16.2208V10.8145H196.719V24.0352H195.89L195.746 22.7039C195.437 23.1907 195.041 23.5632 194.562 23.8231C194.081 24.0831 193.517 24.2122 192.869 24.2122C191.775 24.2122 190.916 23.8029 190.299 22.9879C189.682 22.171 189.373 21.0776 189.373 19.7039V19.5269H189.371ZM190.388 19.7039C190.388 20.8102 190.609 21.6916 191.053 22.348C191.495 23.0026 192.162 23.3308 193.055 23.3308C193.709 23.3308 194.254 23.1852 194.689 22.8938C195.123 22.6025 195.462 22.2005 195.704 21.6861V17.3382C195.473 16.8182 195.146 16.3941 194.722 16.0677C194.298 15.7395 193.749 15.5754 193.072 15.5754C192.18 15.5754 191.51 15.9405 191.062 16.6725C190.613 17.4045 190.39 18.3541 190.39 19.525V19.702L190.388 19.7039Z" fill="#002169"></path>
    <path d="M204.755 24.2141C203.571 24.2141 202.607 23.7937 201.869 22.9547C201.13 22.1157 200.76 21.0389 200.76 19.7223V19.2558C200.76 17.9337 201.134 16.844 201.882 15.9847C202.629 15.1255 203.556 14.6959 204.663 14.6959C205.77 14.6959 206.634 15.0536 207.242 15.769C207.848 16.4844 208.151 17.4451 208.151 18.6547V19.4439H201.777V19.7242C201.777 20.7697 202.04 21.6363 202.569 22.3259C203.095 23.0155 203.827 23.3603 204.757 23.3603C205.317 23.3603 205.829 23.2681 206.298 23.0856C206.766 22.9012 207.157 22.6541 207.466 22.3443L207.899 23.0395C207.577 23.3788 207.155 23.659 206.634 23.884C206.111 24.1071 205.486 24.2196 204.759 24.2196L204.755 24.2141ZM204.661 15.5607C203.882 15.5607 203.243 15.8409 202.74 16.3996C202.237 16.9602 201.944 17.6682 201.859 18.5275L201.885 18.5791H207.135V18.3671C207.135 17.5539 206.921 16.8827 206.496 16.3554C206.068 15.828 205.459 15.5625 204.663 15.5625L204.661 15.5607Z" fill="#002169"></path>
    <path d="M135.367 37.9511L135.384 38.0027C135.406 39.2123 135.012 40.1785 134.2 40.9013C133.387 41.6241 132.321 41.9855 131 41.9855C129.679 41.9855 128.523 41.4895 127.681 40.4975C126.841 39.5055 126.419 38.2221 126.419 36.6456V34.6376C126.419 33.0666 126.839 31.7832 127.681 30.7857C128.521 29.7881 129.628 29.2903 131 29.2903C132.372 29.2903 133.409 29.6425 134.212 30.3487C135.017 31.0549 135.408 32.0266 135.384 33.2639L135.367 33.3155H134.419C134.419 32.3216 134.115 31.5454 133.509 30.9885C132.903 30.4317 132.065 30.1532 130.998 30.1532C129.932 30.1532 129.055 30.5718 128.403 31.4071C127.751 32.2424 127.425 33.3137 127.425 34.6191V36.6456C127.425 37.9677 127.751 39.0463 128.403 39.8779C129.055 40.7114 129.921 41.1281 130.998 41.1281C132.076 41.1281 132.901 40.857 133.509 40.3149C134.115 39.7728 134.419 38.9855 134.419 37.9511H135.367Z" fill="#002169"></path>
    <path d="M139.044 37.0863C139.044 35.7366 139.412 34.6284 140.153 33.7636C140.891 32.8988 141.871 32.4673 143.091 32.4673C144.31 32.4673 145.297 32.8988 146.038 33.7636C146.776 34.6284 147.147 35.7347 147.147 37.0863V37.3666C147.147 38.7237 146.778 39.8319 146.041 40.693C145.305 41.5541 144.328 41.9855 143.107 41.9855C141.886 41.9855 140.891 41.5541 140.153 40.693C139.414 39.8319 139.044 38.7218 139.044 37.3666V37.0863ZM140.059 37.3666C140.059 38.4287 140.328 39.3211 140.864 40.0458C141.4 40.7686 142.148 41.13 143.107 41.13C144.067 41.13 144.791 40.7686 145.33 40.0458C145.868 39.323 146.139 38.4305 146.139 37.3666V37.0863C146.139 36.0408 145.868 35.1539 145.325 34.4256C144.783 33.6972 144.037 33.3321 143.091 33.3321C142.144 33.3321 141.4 33.6972 140.864 34.4256C140.328 35.1539 140.059 36.0427 140.059 37.0863V37.3666Z" fill="#002169"></path>
    <path d="M155.299 33.511L154.579 33.4594C153.941 33.4594 153.416 33.6383 153.009 33.9978C152.599 34.3574 152.308 34.8497 152.133 35.4766V41.8067H151.118V32.637H152.005L152.133 34.1638V34.2652C152.398 33.6991 152.753 33.2584 153.199 32.9431C153.645 32.626 154.175 32.4692 154.79 32.4692C154.914 32.4692 155.034 32.4785 155.146 32.4987C155.258 32.519 155.352 32.5393 155.426 32.5614L155.299 33.511Z" fill="#002169"></path>
    <path d="M158.331 37.2984C158.331 35.8343 158.64 34.6634 159.259 33.7857C159.876 32.908 160.738 32.4673 161.845 32.4673C162.471 32.4673 163.02 32.6001 163.492 32.8656C163.963 33.1311 164.354 33.5073 164.665 33.9922V28.5859H165.682V41.8067H164.853L164.709 40.4754C164.4 40.9622 164.004 41.3346 163.525 41.5946C163.046 41.8546 162.481 41.9837 161.832 41.9837C160.736 41.9837 159.88 41.5744 159.263 40.7593C158.646 39.9425 158.334 38.8491 158.334 37.4754V37.2984H158.331ZM159.348 37.4754C159.348 38.5817 159.569 39.4631 160.012 40.1195C160.455 40.7741 161.123 41.1023 162.015 41.1023C162.67 41.1023 163.214 40.9566 163.648 40.6653C164.083 40.374 164.422 39.972 164.663 39.4576V35.1096C164.431 34.5897 164.105 34.1656 163.682 33.8392C163.258 33.511 162.709 33.3469 162.031 33.3469C161.14 33.3469 160.469 33.712 160.02 34.444C159.572 35.176 159.348 36.1256 159.348 37.2965V37.4735V37.4754Z" fill="#002169"></path>
    <path d="M169.668 37.0863C169.668 35.7366 170.038 34.6284 170.777 33.7636C171.515 32.8989 172.495 32.4674 173.715 32.4674C174.934 32.4674 175.921 32.8989 176.662 33.7636C177.4 34.6284 177.771 35.7348 177.771 37.0863V37.3666C177.771 38.7237 177.402 39.8319 176.665 40.693C175.929 41.5541 174.951 41.9856 173.731 41.9856C172.512 41.9856 171.515 41.5541 170.777 40.693C170.038 39.8319 169.668 38.7219 169.668 37.3666V37.0863ZM170.685 37.3666C170.685 38.4287 170.952 39.3211 171.488 40.0458C172.024 40.7686 172.772 41.13 173.731 41.13C174.691 41.13 175.415 40.7686 175.953 40.0458C176.492 39.323 176.761 38.4305 176.761 37.3666V37.0863C176.761 36.0409 176.49 35.1539 175.949 34.4256C175.407 33.6973 174.661 33.3322 173.713 33.3322C172.764 33.3322 172.022 33.6973 171.486 34.4256C170.95 35.1539 170.683 36.0427 170.683 37.0863V37.3666H170.685ZM174.986 28.7464H176.231L176.255 28.798L174.148 31.0015H173.241L174.986 28.7464Z" fill="#002169"></path>
    <path d="M182.641 32.637L182.733 34.2301C183.031 33.6714 183.431 33.2363 183.926 32.9283C184.424 32.6204 185.013 32.4673 185.696 32.4673C186.689 32.4673 187.446 32.7716 187.966 33.3782C188.485 33.9849 188.745 34.9326 188.745 36.2215V41.8067H187.73V36.2307C187.73 35.1797 187.533 34.4366 187.14 34.0015C186.748 33.5663 186.19 33.3487 185.468 33.3487C184.746 33.3487 184.162 33.5257 183.72 33.8816C183.278 34.2375 182.957 34.7151 182.758 35.3143V41.8067H181.742V32.637H182.639H182.641Z" fill="#002169"></path>
    <path d="M208.218 29.4673V37.6635C208.218 39.0187 207.803 40.079 206.973 40.8405C206.144 41.6039 205.075 41.9856 203.773 41.9856C202.471 41.9856 201.436 41.602 200.62 40.8368C199.804 40.0716 199.397 39.0132 199.397 37.6635V29.4673H200.413V37.6635C200.413 38.7256 200.728 39.5682 201.358 40.1933C201.988 40.8184 202.793 41.13 203.775 41.13C204.757 41.13 205.604 40.8202 206.247 40.197C206.89 39.5756 207.212 38.7311 207.212 37.6635V29.4673H208.22H208.218Z" fill="#002169"></path>
    <path d="M213.672 32.637L213.764 34.1453C214.057 33.6142 214.447 33.2012 214.937 32.908C215.425 32.6149 216.005 32.4673 216.678 32.4673C217.35 32.4673 217.961 32.6351 218.429 32.9707C218.897 33.3082 219.234 33.8208 219.437 34.5085C219.713 33.8706 220.107 33.369 220.617 33.0095C221.128 32.648 221.745 32.4673 222.467 32.4673C223.443 32.4673 224.198 32.7919 224.732 33.4409C225.265 34.0918 225.532 35.0967 225.532 36.4575V41.8048H224.515V36.4409C224.515 35.3106 224.314 34.5122 223.915 34.0457C223.513 33.5792 222.96 33.3469 222.255 33.3469C221.481 33.3469 220.883 33.5829 220.461 34.0549C220.037 34.527 219.768 35.1355 219.656 35.8804C219.656 35.9431 219.656 36.0058 219.662 36.0666C219.663 36.1293 219.665 36.2086 219.665 36.3045V41.8048H218.641V36.4409C218.641 35.3328 218.438 34.5417 218.035 34.0642C217.632 33.5866 217.077 33.3487 216.372 33.3487C215.666 33.3487 215.094 33.5276 214.674 33.8871C214.252 34.2467 213.957 34.7317 213.789 35.3401V41.8067H212.773V32.637H213.67H213.672Z" fill="#002169"></path>
    <path d="M237.41 37.4772C237.41 38.8509 237.101 39.9443 236.478 40.7612C235.858 41.578 235.003 41.9855 233.913 41.9855C233.246 41.9855 232.669 41.8509 232.181 41.5817C231.693 41.3144 231.297 40.9308 230.991 40.433L230.822 41.8067H230.026V28.5859H231.041V34.0439C231.347 33.5405 231.735 33.1533 232.211 32.8785C232.684 32.6038 233.246 32.4673 233.894 32.4673C234.996 32.4673 235.856 32.9062 236.477 33.7857C237.097 34.6653 237.409 35.8361 237.409 37.2984V37.4754L237.41 37.4772ZM236.386 37.3002C236.386 36.1312 236.162 35.1797 235.709 34.4477C235.257 33.7157 234.589 33.3506 233.703 33.3506C233.003 33.3506 232.439 33.522 232.01 33.8632C231.581 34.2061 231.258 34.6468 231.045 35.1889V39.3838C231.271 39.9148 231.605 40.3353 232.049 40.6432C232.491 40.9511 233.049 41.1042 233.721 41.1042C234.607 41.1042 235.272 40.7759 235.718 40.1214C236.163 39.4649 236.386 38.5835 236.386 37.4772V37.3002Z" fill="#002169"></path>
    <path d="M242.669 30.0094H241.662V28.5859H242.669V30.0094ZM242.669 41.8067H241.662V32.637H242.669V41.8067Z" fill="#002169"></path>
    <path d="M248.462 41.8086H247.455V28.5878H248.462V41.8086Z" fill="#002169"></path>
    <path d="M254.253 30.0094H253.246V28.5859H254.253V30.0094ZM254.253 41.8067H253.246V32.637H254.253V41.8067Z" fill="#002169"></path>
    <path d="M262.264 41.13C262.912 41.13 263.487 40.9382 263.988 40.5528C264.487 40.1693 264.737 39.6346 264.737 38.9505H265.642L265.658 39.0021C265.68 39.8503 265.347 40.5584 264.658 41.13C263.969 41.7016 263.172 41.9855 262.262 41.9855C261.042 41.9855 260.092 41.5559 259.412 40.6967C258.733 39.8374 258.392 38.7384 258.392 37.3998V37.0439C258.392 35.7108 258.731 34.6155 259.409 33.7562C260.086 32.897 261.033 32.4673 262.253 32.4673C263.234 32.4673 264.054 32.7642 264.708 33.3579C265.364 33.9517 265.679 34.7317 265.656 35.696L265.64 35.7476H264.735C264.735 35.0138 264.496 34.4274 264.015 33.9886C263.535 33.5516 262.947 33.3321 262.254 33.3321C261.295 33.3321 260.58 33.6843 260.112 34.3905C259.644 35.0967 259.409 35.9818 259.409 37.0421V37.3979C259.409 38.4766 259.643 39.3691 260.112 40.0716C260.58 40.7741 261.297 41.1263 262.262 41.1263L262.264 41.13Z" fill="#002169"></path>
    <path d="M275.489 41.8086C275.426 41.4859 275.38 41.2093 275.349 40.9788C275.318 40.7483 275.303 40.5105 275.303 40.2671C274.986 40.7649 274.544 41.1761 273.973 41.5006C273.404 41.8252 272.748 41.9874 272.009 41.9874C271.112 41.9874 270.416 41.7496 269.923 41.272C269.429 40.7944 269.182 40.1454 269.182 39.3267C269.182 38.508 269.539 37.8442 270.258 37.3353C270.974 36.8264 271.906 36.5737 273.052 36.5737H275.305V35.4379C275.305 34.7815 275.097 34.2689 274.682 33.8946C274.268 33.5221 273.682 33.3359 272.925 33.3359C272.231 33.3359 271.671 33.5055 271.245 33.8448C270.818 34.184 270.606 34.61 270.606 35.1244H269.667L269.65 35.0728C269.617 34.3832 269.912 33.7765 270.534 33.2547C271.159 32.7329 271.973 32.4711 272.977 32.4711C273.98 32.4711 274.789 32.7292 275.399 33.2418C276.008 33.7563 276.312 34.4938 276.312 35.4545V39.9628C276.312 40.2855 276.331 40.599 276.368 40.9032C276.404 41.2075 276.465 41.5099 276.55 41.8104H275.493L275.489 41.8086ZM272.12 41.0876C272.899 41.0876 273.573 40.9014 274.144 40.5326C274.713 40.162 275.1 39.6862 275.305 39.1036V37.35H273.045C272.221 37.35 271.54 37.5473 271.004 37.9382C270.468 38.331 270.199 38.8049 270.199 39.358C270.199 39.878 270.37 40.2966 270.711 40.6119C271.052 40.9272 271.521 41.0858 272.12 41.0858V41.0876Z" fill="#002169"></path>
    <path d="M282 41.8086H280.992V28.5878H282V41.8086Z" fill="#002169"></path>
  </g>
  <defs>
    <clipPath id="clip0_484_90">
      <rect width="282" height="52.8" fill="white"></rect>
    </clipPath>
  </defs>
</svg>
